<svg width="16" height="16" viewBox="0 0 16 16" fill="none" xmlns="http://www.w3.org/2000/svg">
    <g clip-path="url(#clip0_117_194)">
        <path d="M10.9587 8.96643C11.5089 8.96644 11.9548 9.41232 11.9548 9.96252V10.9586C11.9548 11.5088 11.5089 11.9547 10.9587 11.9547H5.97729C5.42715 11.9546 4.9812 11.5088 4.9812 10.9586V9.96252C4.9812 9.41236 5.42715 8.96652 5.97729 8.96643H10.9587ZM14.9441 3.98499C15.4941 3.98519 15.9401 4.43106 15.9402 4.98108V5.97717C15.9402 6.52726 15.4941 6.97307 14.9441 6.97327H5.97729C5.42715 6.97318 4.9812 6.52733 4.9812 5.97717V4.98108C4.98129 4.43099 5.42721 3.98507 5.97729 3.98499H14.9441Z" fill="white"/>
        <rect opacity="0.3" y="14.9438" width="13.9475" height="1.9925" rx="0.996252" transform="rotate(-90 0 14.9438)" fill="white"/>
    </g>
    <defs>
        <clipPath id="clip0_117_194">
            <rect width="15.94" height="15.94" fill="white"/>
        </clipPath>
    </defs>
</svg>
